# Blender v2.81 (sub 16) OBJ File: 'arm.blend'
# www.blender.org
mtllib arm1.mtl
o Arm
v -0.040361 -0.039806 0.008369
v -0.022323 -0.037587 0.008369
v -0.032652 0.031677 -0.005266
v 0.052632 0.023390 -0.005266
v 0.015953 -0.061440 0.008367
v 0.044951 -0.039074 -0.005266
v 0.015467 -0.107319 -0.005266
v 0.025735 -0.094860 -0.005266
v -0.019836 -0.092504 0.008369
v -0.008455 -0.125830 -0.005266
v -0.053674 -0.051455 0.008369
v -0.094304 -0.006782 -0.005266
v -0.063104 -0.083629 0.008369
v -0.126635 -0.118325 -0.005266
v -0.019836 -0.092504 0.008369
v -0.044749 -0.086860 0.008369
v -0.057855 -0.199163 -0.000471
v -0.046183 -0.207416 -0.005266
v -0.031482 -0.097073 0.008369
v -0.030263 -0.173141 -0.005266
v -0.197826 -0.162210 -0.005266
v -0.149553 -0.162454 0.008369
v -0.133706 -0.205851 0.008369
v -0.118590 -0.204144 0.008369
v -0.125904 -0.223161 0.008369
v -0.065622 -0.217297 -0.001340
v -0.055688 -0.222186 -0.005266
v -0.138582 -0.224624 0.008369
v -0.261812 -0.236090 -0.005266
v -0.268143 -0.273378 0.005352
v -0.211723 -0.305567 0.006723
v -0.197583 -0.317758 -0.005266
v -0.153454 -0.307518 -0.005266
v -0.279257 -0.267046 -0.005266
v -0.300956 -0.340188 0.008369
v -0.250711 -0.324126 0.008369
v -0.280776 -0.355426 0.008369
v -0.246181 -0.378078 -0.005266
v -0.210350 -0.355838 -0.005266
v -0.327731 -0.379517 0.008369
v -0.313441 -0.296287 -0.005266
v -0.288606 -0.405875 -0.005266
v -0.356684 -0.329647 -0.005266
v -0.360391 -0.395130 0.008369
v -0.433699 -0.462261 -0.005266
v -0.392103 -0.482853 0.007788
v -0.399516 -0.405014 -0.005266
v -0.368504 -0.473418 -0.005266
v -0.385389 -0.497717 -0.003130
v -0.451697 -0.530665 0.008369
v -0.460881 -0.530215 0.008369
v -0.479826 -0.495208 0.008369
v -0.492593 -0.533098 0.008369
v -0.494241 -0.491502 -0.002937
v -0.491358 -0.496444 0.008369
v -0.505360 -0.501386 -0.002937
v -0.502478 -0.507976 0.008369
v -0.558489 -0.528156 -0.002937
v -0.556018 -0.561516 0.003277
v -0.518540 -0.530215 0.008369
v -0.512362 -0.536805 0.008369
v -0.538308 -0.561927 -0.002937
v -0.496712 -0.541747 -0.002937
v -0.471060 -0.556030 0.008369
v -0.546266 -0.601213 -0.002937
v -0.549764 -0.609666 -0.002937
v -0.490590 -0.563609 0.008369
v -0.478639 -0.572646 -0.002937
v -0.534315 -0.636484 0.003277
v -0.515368 -0.629779 -0.002937
v -0.495546 -0.603836 0.003277
v -0.510995 -0.600047 0.008369
v -0.504582 -0.671172 -0.002937
v -0.470186 -0.673504 -0.002937
v -0.481845 -0.629196 0.008369
v -0.461149 -0.598881 -0.002937
v -0.452404 -0.581974 -0.002937
v -0.439870 -0.583140 0.008369
v -0.444242 -0.640273 -0.002937
v -0.413926 -0.663885 -0.002937
v -0.426752 -0.603836 -0.002937
v -0.407805 -0.647269 -0.002937
v -0.417716 -0.635901 0.008369
v -0.416258 -0.622492 -0.002937
v -0.402558 -0.636192 -0.002937
v -0.426169 -0.559528 -0.002937
v -0.411594 -0.574103 -0.002937
v -0.392356 -0.535043 -0.002937
v -0.380113 -0.603253 -0.002937
v -0.425295 -0.582557 -0.002937
v -0.411886 -0.593634 -0.002937
v -0.396728 -0.617536 0.008369
v -0.406056 -0.618119 -0.002937
v -0.395854 -0.638524 -0.002937
v -0.380113 -0.614622 -0.002937
vt 0.808273 0.847515
vt 0.832590 0.849731
vt 0.933635 0.910644
vt 0.818665 0.918922
vt 0.884189 0.825904
vt 0.923281 0.848246
vt 0.883533 0.780073
vt 0.897377 0.792519
vt 0.835942 0.794872
vt 0.851284 0.761582
vt 0.735551 0.880503
vt 0.790325 0.835878
vt 0.802356 0.800510
vt 0.777612 0.803739
vt 0.691966 0.769079
vt 0.784688 0.688328
vt 0.800424 0.680083
vt 0.820242 0.790308
vt 0.835942 0.794872
vt 0.821886 0.714322
vt 0.661071 0.724998
vt 0.595993 0.725241
vt 0.702812 0.683351
vt 0.682435 0.681647
vt 0.692952 0.664355
vt 0.675861 0.662893
vt 0.509735 0.651440
vt 0.501200 0.614191
vt 0.774218 0.670212
vt 0.787610 0.665329
vt 0.577259 0.582036
vt 0.655812 0.580088
vt 0.596322 0.569859
vt 0.486216 0.620516
vt 0.456964 0.547453
vt 0.524700 0.563498
vt 0.484169 0.532231
vt 0.579110 0.531819
vt 0.530807 0.509603
vt 0.420869 0.508165
vt 0.440134 0.591307
vt 0.473614 0.481835
vt 0.376840 0.492569
vt 0.381837 0.557983
vt 0.334089 0.404939
vt 0.278013 0.425509
vt 0.324096 0.482695
vt 0.365903 0.414364
vt 0.253752 0.357179
vt 0.343140 0.390091
vt 0.241370 0.357627
vt 0.215830 0.392597
vt 0.198619 0.354748
vt 0.196398 0.396300
vt 0.200284 0.391363
vt 0.181407 0.386426
vt 0.185294 0.379843
vt 0.109785 0.359684
vt 0.113117 0.326361
vt 0.163640 0.357627
vt 0.171969 0.351045
vt 0.136990 0.325949
vt 0.193066 0.346108
vt 0.227648 0.331840
vt 0.126262 0.286706
vt 0.121546 0.278261
vt 0.201319 0.324269
vt 0.217430 0.315242
vt 0.173811 0.287870
vt 0.142374 0.251472
vt 0.167916 0.258169
vt 0.194638 0.284085
vt 0.213108 0.258752
vt 0.182456 0.216821
vt 0.228827 0.214491
vt 0.241008 0.289035
vt 0.252797 0.305924
vt 0.269695 0.304759
vt 0.263801 0.247687
vt 0.287379 0.284085
vt 0.299561 0.252054
vt 0.301526 0.265449
vt 0.304669 0.224100
vt 0.312922 0.240698
vt 0.319995 0.251763
vt 0.288165 0.328346
vt 0.333749 0.352805
vt 0.307813 0.313786
vt 0.350254 0.284667
vt 0.289344 0.305342
vt 0.307420 0.294277
vt 0.327854 0.270399
vt 0.315279 0.269817
vt 0.329033 0.249434
vt 0.350254 0.273311
vn 0.0114 0.1948 0.9808
vn 0.1996 0.0707 0.9773
vn 0.4798 -0.2073 0.8525
vn 0.0000 0.0000 1.0000
vn 0.2381 -0.2867 0.9280
vn -0.1284 0.1920 0.9730
vn -0.2462 0.0715 0.9666
vn 0.1226 -0.0921 0.9882
vn 0.1126 -0.1366 0.9842
vn 0.3055 -0.1970 0.9316
vn -0.3374 0.4334 0.8357
vn -0.2890 0.2705 0.9183
vn -0.0206 -0.0036 0.9998
vn 0.1514 -0.0731 0.9858
vn 0.2777 -0.1707 0.9454
vn -0.0206 -0.0017 0.9998
vn 0.1887 -0.2251 0.9559
vn 0.1849 -0.2746 0.9436
vn -0.5581 0.3106 0.7694
vn -0.0041 0.0579 0.9983
vn 0.2719 -0.3470 0.8976
vn 0.1871 -0.1507 0.9707
vn -0.2495 0.2218 0.9426
vn 0.1631 -0.2809 0.9458
vn -0.1249 0.1935 0.9731
vn -0.1693 0.0547 0.9840
vn -0.3693 0.2145 0.9042
vn 0.3148 -0.2689 0.9103
vn 0.4149 -0.4094 0.8125
vn -0.1512 0.2313 0.9611
vn 0.1385 0.0749 0.9875
vn -0.2911 0.7352 0.6122
vn -0.6093 0.6327 0.4780
vn -0.3059 0.3340 0.8916
vn 0.1196 -0.3987 0.9092
vn 0.2684 -0.6894 0.6729
vn -0.2299 -0.2159 0.9490
vn -0.3773 0.2947 0.8779
vn -0.0591 -0.1010 0.9931
vn 0.2697 -0.1734 0.9472
vn -0.7752 0.1658 0.6096
vn 0.2792 -0.1678 0.9455
vn 0.5086 -0.1077 0.8542
vn 0.1688 -0.1839 0.9684
vn -0.1538 -0.1805 0.9715
vn -0.1791 0.2819 0.9426
vn -0.0734 -0.3821 0.9212
vn 0.5882 0.2007 0.7834
vn 0.1778 -0.1142 0.9774
vn 0.6131 -0.0081 0.7900
vn 0.0841 0.2779 0.9569
vn -0.7374 -0.2634 0.6220
vn 0.5741 -0.2562 0.7777
usemtl Arm_texture_1
s off
f 1/1/1 2/2/1 4/3/1 3/4/1
f 4/3/2 2/2/2 5/5/2 6/6/2
f 6/6/3 5/5/3 7/7/3 8/8/3
f 9/9/4 5/5/4 2/2/4 1/1/4
f 7/7/5 5/5/5 9/9/5 10/10/5
f 12/11/6 11/12/6 1/1/6 3/4/6
f 16/13/4 1/1/4 11/12/4 13/14/4
f 12/11/7 14/15/7 13/14/7 11/12/7
f 16/13/8 13/14/8 17/16/8 18/17/8
f 16/13/4 19/18/4 15/19/4 1/1/4
f 20/20/9 19/18/9 16/13/9 18/17/9
f 19/18/10 20/20/10 10/10/10 15/19/10
f 22/21/11 13/14/11 14/15/11 21/22/11
f 24/23/4 13/14/4 22/21/4 23/24/4
f 25/25/4 24/23/4 23/24/4 28/26/4
f 22/21/12 21/22/12 29/27/12 30/28/12
f 22/21/13 30/28/13 28/26/13 23/24/13
f 17/16/14 13/14/14 24/23/14 25/25/14 26/29/14
f 18/17/15 17/16/15 26/29/15 27/30/15
f 31/31/16 25/25/16 28/26/16 30/28/16
f 25/25/17 31/31/17 27/30/17 26/29/17
f 33/32/18 27/30/18 31/31/18 32/33/18
f 30/28/19 29/27/19 34/34/19 35/35/19
f 31/31/20 30/28/20 35/35/20 36/36/20
f 32/33/21 31/31/21 36/36/21 37/37/21
f 39/38/22 32/33/22 37/37/22 38/39/22
f 40/40/4 37/37/4 36/36/4 35/35/4
f 41/41/23 40/40/23 35/35/23 34/34/23
f 38/39/24 37/37/24 40/40/24 42/42/24
f 44/43/25 40/40/25 41/41/25 43/44/25
f 46/45/26 40/40/26 44/43/26 45/46/26
f 47/47/27 45/46/27 44/43/27 43/44/27
f 42/42/28 40/40/28 46/45/28 48/48/28
f 50/49/29 49/50/29 48/48/29 46/45/29
f 51/51/30 50/49/30 46/45/30 45/46/30
f 51/51/31 45/46/31 52/52/31 53/53/31
f 52/52/32 45/46/32 54/54/32 55/55/32
f 55/55/33 54/54/33 56/56/33 57/57/33
f 53/53/4 52/52/4 55/55/4 57/57/4
f 57/57/34 56/56/34 58/58/34 59/59/34 60/60/34
f 61/61/4 53/53/4 57/57/4 60/60/4
f 62/62/35 61/61/35 60/60/35 59/59/35
f 63/63/36 53/53/36 61/61/36 62/62/36
f 64/64/37 51/51/37 53/53/37 63/63/37
f 65/65/38 66/66/38 67/67/38 63/63/38
f 64/64/4 63/63/4 67/67/4 68/68/4
f 72/69/4 68/68/4 67/67/4 66/66/4
f 69/70/39 70/71/39 72/69/39 66/66/39
f 71/72/40 68/68/40 72/69/40 70/71/40
f 75/73/41 64/64/41 68/68/41 73/74/41
f 74/75/42 76/76/42 75/73/42 73/74/42
f 51/51/43 64/64/43 75/73/43 76/76/43
f 50/49/44 51/51/44 76/76/44 77/77/44
f 78/78/45 77/77/45 79/79/45 81/80/45
f 81/80/46 79/79/46 83/81/46 84/82/46
f 80/83/47 82/84/47 83/81/47 79/79/47
f 85/85/48 84/82/48 83/81/48 82/84/48
f 78/78/4 86/86/4 50/49/4 77/77/4
f 50/49/49 86/86/49 88/87/49 49/50/49
f 86/86/4 87/88/4 89/89/4 88/87/4
f 81/80/50 90/90/50 86/86/50 78/78/50
f 89/89/51 87/88/51 91/91/51 92/92/51
f 92/92/52 91/91/52 93/93/52 94/94/52
f 95/95/53 89/89/53 92/92/53 94/94/53
l 9 15
