# Blender v2.81 (sub 16) OBJ File: 'cog.blend'
# www.blender.org
mtllib cog1.mtl
o Cylinder
v 0.016052 0.315755 0.016046
v 0.087776 0.315964 0.016046
v 0.180301 0.258239 0.016046
v 0.237978 0.217196 0.016046
v 0.289456 0.139929 0.016046
v 0.305197 0.074171 0.016046
v 0.311786 -0.029868 0.016046
v 0.302868 -0.107469 0.016046
v 0.258823 -0.188321 0.016046
v 0.212762 -0.250512 0.016046
v 0.143448 -0.292107 0.016046
v 0.076853 -0.333150 0.016046
v -0.006755 -0.332016 0.016046
v -0.062426 -0.331807 0.016046
v -0.157336 -0.298128 0.016046
v -0.217757 -0.260022 0.016046
v -0.270083 -0.206494 0.016046
v -0.305509 -0.145280 0.016046
v -0.342653 -0.059902 0.016046
v -0.327838 0.001331 0.016046
v -0.329622 0.111037 0.016046
v -0.296279 0.150866 0.016046
v -0.235949 0.214841 0.016046
v -0.202306 0.256436 0.016046
v -0.125779 0.282040 0.020668
v -0.078858 0.287427 0.016046
v 0.005351 0.366181 0.016046
v 0.111170 0.360632 0.016046
v 0.211772 0.308947 0.016046
v 0.279057 0.243310 0.016046
v 0.337238 0.159573 0.016046
v 0.359641 0.067019 0.016046
v 0.358095 -0.031481 0.016046
v 0.345610 -0.137960 0.016046
v 0.302566 -0.225759 0.016046
v 0.260543 -0.298693 0.016046
v 0.179176 -0.337840 0.016046
v 0.102973 -0.382074 0.016046
v 0.000587 -0.389169 0.016046
v -0.082046 -0.387584 0.016046
v -0.180731 -0.351714 0.016046
v -0.254579 -0.301812 0.016046
v -0.328998 -0.250444 0.016046
v -0.365775 -0.161356 0.016046
v -0.402448 -0.072369 0.016046
v -0.411630 0.030661 0.016046
v -0.390200 0.125475 0.016046
v -0.332887 0.186520 0.016046
v -0.274812 0.259454 0.016046
v -0.214848 0.303952 0.016046
v -0.143996 0.337484 0.016046
v -0.094103 0.346977 0.020668
vt 0.417628 0.784749
vt 0.259800 0.712772
vt 0.167479 0.501055
vt 0.152596 0.440337
vt 0.129365 0.339735
vt 0.189913 0.355676
vt 0.512983 0.812839
vt 0.403084 0.846728
vt 0.787669 0.638490
vt 0.777222 0.741003
vt 0.735950 0.715108
vt 0.574069 0.169384
vt 0.497445 0.113835
vt 0.600311 0.120870
vt 0.165688 0.609840
vt 0.083295 0.530139
vt 0.810104 0.470119
vt 0.858183 0.566192
vt 0.803484 0.573284
vt 0.338781 0.204111
vt 0.414425 0.115407
vt 0.434137 0.170715
vt 0.162407 0.684690
vt 0.199187 0.649335
vt 0.756893 0.312996
vt 0.844086 0.362934
vt 0.801144 0.393169
vt 0.225505 0.294976
vt 0.241082 0.200458
vt 0.278077 0.241897
vt 0.371260 0.782336
vt 0.281000 0.801136
vt 0.293600 0.754018
vt 0.678002 0.755806
vt 0.608547 0.857339
vt 0.585043 0.813047
vt 0.710615 0.251328
vt 0.676872 0.164732
vt 0.758620 0.203551
vt 0.640976 0.210082
vt 0.490069 0.170508
vt 0.092520 0.427974
vt 0.502231 0.862842
vt 0.835675 0.657968
vt 0.104826 0.624158
vt 0.856630 0.468519
vt 0.315277 0.150976
vt 0.220755 0.757011
vt 0.800841 0.275873
vt 0.166314 0.251395
vt 0.352185 0.834386
vt 0.709621 0.806088
vn 0.5418 0.0037 0.8405
vn -0.2857 0.4572 0.8423
vn 0.4106 0.4313 0.8033
vn -0.3842 0.5187 0.7638
vn 0.3693 0.7462 0.5539
vn 0.2129 0.5842 0.7831
vn 0.2354 0.5627 0.7924
vn 0.7027 -0.4617 0.5414
vn 0.5907 -0.1306 0.7963
vn -0.1622 -0.8058 0.5696
vn -0.4512 -0.4518 0.7696
vn -0.1149 0.5776 0.8082
vn 0.5226 0.6372 0.5664
vn -0.6440 0.3565 0.6769
vn -0.1019 0.6398 0.7617
vn 0.7268 0.4026 0.5565
vn 0.5485 -0.2229 0.8059
vn -0.6289 -0.5430 0.5565
vn -0.4083 -0.4874 0.7718
vn -0.3682 -0.4792 0.7968
vn -0.3486 0.7368 0.5793
vn 0.0957 0.6245 0.7752
vn 0.8275 0.0523 0.5591
vn 0.5804 -0.1130 0.8065
vn 0.3339 -0.4537 0.8262
vn -0.8108 -0.2050 0.5483
vn -0.6097 0.2328 0.7577
vn -0.5837 0.1320 0.8011
vn -0.1013 0.8251 0.5559
vn -0.2274 0.5614 0.7957
vn 0.2137 0.5211 0.8263
vn 0.7407 -0.3461 0.5758
vn 0.3558 -0.4837 0.7996
vn 0.3616 0.4651 0.8081
vn 0.2470 -0.7794 0.5758
vn -0.0326 -0.6496 0.7596
vn -0.1814 0.5766 0.7966
vn 0.1915 0.8194 0.5403
vn -0.7465 0.1286 0.6528
vn 0.4682 -0.3712 0.8019
vn 0.2203 -0.5592 0.7992
vn 0.6958 -0.3686 0.6165
vn -0.4286 -0.6800 0.5949
vn -0.7496 0.2210 0.6239
vn 0.4309 -0.6916 0.5796
vn -0.5607 0.5899 0.5811
vn 0.7421 0.3184 0.5898
vn 0.0174 -0.7878 0.6156
vn -0.1566 0.7587 0.6323
vn 0.7590 0.0139 0.6509
vn -0.3376 -0.6931 0.6369
vn -0.7756 -0.2149 0.5936
usemtl cog_texture_1
s 1
f 26/1/1 23/2/2 20/3/3
f 19/4/4 44/5/5 18/6/6
f 1/7/7 52/8/8 26/1/1
f 5/9/9 30/10/10 4/11/11
f 12/12/12 39/13/13 38/14/14
f 21/15/15 46/16/16 20/3/3
f 7/17/17 32/18/18 6/19/19
f 15/20/20 40/21/21 14/22/22
f 23/2/2 48/23/23 22/24/24
f 9/25/25 34/26/26 8/27/27
f 17/28/28 42/29/29 16/30/30
f 25/31/31 50/32/32 24/33/33
f 3/34/34 28/35/35 2/36/36
f 10/37/37 37/38/38 36/39/39
f 3/34/34 2/36/36 1/7/7
f 26/1/1 25/31/31 23/2/2
f 25/31/31 24/33/33 23/2/2
f 3/34/34 1/7/7 26/1/1
f 5/9/9 4/11/11 3/34/34
f 7/17/17 6/19/19 26/1/1
f 6/19/19 5/9/9 3/34/34
f 26/1/1 6/19/19 3/34/34
f 9/25/25 8/27/27 7/17/17
f 11/40/40 10/37/37 9/25/25
f 13/41/41 12/12/12 11/40/40
f 15/20/20 14/22/22 13/41/41
f 17/28/28 16/30/30 18/6/6
f 16/30/30 15/20/20 20/3/3
f 19/4/4 18/6/6 20/3/3
f 20/3/3 18/6/6 16/30/30
f 22/24/24 21/15/15 20/3/3
f 15/20/20 13/41/41 26/1/1
f 20/3/3 15/20/20 26/1/1
f 13/41/41 11/40/40 26/1/1
f 11/40/40 9/25/25 26/1/1
f 9/25/25 7/17/17 26/1/1
f 23/2/2 22/24/24 20/3/3
f 19/4/4 45/42/42 44/5/5
f 1/7/7 27/43/43 52/8/8
f 5/9/9 31/44/44 30/10/10
f 12/12/12 13/41/41 39/13/13
f 21/15/15 47/45/45 46/16/16
f 7/17/17 33/46/46 32/18/18
f 15/20/20 41/47/47 40/21/21
f 23/2/2 49/48/48 48/23/23
f 9/25/25 35/49/49 34/26/26
f 17/28/28 43/50/50 42/29/29
f 25/31/31 51/51/51 50/32/32
f 3/34/34 29/52/52 28/35/35
f 10/37/37 11/40/40 37/38/38
