# Blender v2.81 (sub 16) OBJ File: 'grabber.blend'
# www.blender.org
mtllib grabber.mtl
o GrabberArmsClose
v 0.035518 0.270764 0.015296
v 0.035518 0.270764 -0.015296
v 0.019869 0.247822 0.015296
v 0.019869 0.247822 -0.015296
v 0.121828 0.190068 -0.015296
v 0.121828 0.190068 0.015296
v 0.097184 0.177263 0.015296
v 0.097184 0.177263 -0.015296
v 0.091674 -0.004923 -0.013322
v 0.091674 -0.004923 0.013322
v 0.067992 0.000000 0.013322
v 0.067992 0.000000 -0.013322
v 0.015044 -0.084055 -0.026976
v 0.015044 -0.084055 0.026976
v 0.026799 -0.036509 0.026976
v 0.026799 -0.036509 -0.026976
v -0.035518 0.270764 0.015296
v -0.035518 0.270764 -0.015296
v -0.019869 0.247822 0.015296
v -0.019869 0.247822 -0.015296
v -0.121828 0.190068 -0.015296
v -0.121828 0.190068 0.015296
v -0.097184 0.177263 0.015296
v -0.097184 0.177263 -0.015296
v -0.091674 -0.004923 -0.013322
v -0.091674 -0.004923 0.013322
v -0.067992 0.000000 0.013322
v -0.067992 0.000000 -0.013322
v -0.015044 -0.084055 -0.026976
v -0.015044 -0.084055 0.026976
v -0.026799 -0.036509 0.026976
v -0.026799 -0.036509 -0.026976
vt 0.500800 0.232513
vt 0.549903 0.186603
vt 0.535883 0.179319
vt 0.491897 0.219461
vt 0.519275 0.078469
vt 0.519275 0.078469
vt 0.535883 0.179319
vt 0.500800 0.232513
vt 0.549903 0.186603
vt 0.491897 0.219461
vt 0.532748 0.075668
vt 0.489152 0.030649
vt 0.495839 0.057698
vt 0.532748 0.075668
vt 0.489152 0.030649
vt 0.495839 0.057698
vt 0.460386 0.232513
vt 0.469289 0.219461
vt 0.425302 0.179319
vt 0.411282 0.186603
vt 0.425302 0.179319
vt 0.441910 0.078469
vt 0.441910 0.078469
vt 0.460386 0.232513
vt 0.411282 0.186603
vt 0.469289 0.219461
vt 0.428438 0.075668
vt 0.465346 0.057698
vt 0.472034 0.030649
vt 0.428438 0.075668
vt 0.472034 0.030649
vt 0.465346 0.057698
vn 0.0000 -0.0000 -1.0000
vn -0.9867 0.1625 0.0000
vn 0.6830 0.7305 0.0000
vn -0.6741 -0.7386 0.0000
vn -0.0000 0.0000 1.0000
vn 0.1860 0.0423 -0.9816
vn 0.0018 -0.0109 0.9999
vn 0.0018 -0.0109 -0.9999
vn 0.9883 -0.1528 0.0000
vn -0.9708 0.2400 0.0000
vn 0.7184 -0.6957 -0.0000
vn -0.6633 0.7484 0.0000
vn 0.1860 0.0423 0.9816
vn 0.9867 0.1625 0.0000
vn -0.6830 0.7305 -0.0000
vn 0.6741 -0.7386 0.0000
vn -0.1860 0.0423 -0.9816
vn -0.0018 -0.0109 0.9999
vn -0.0018 -0.0109 -0.9999
vn -0.9883 -0.1528 -0.0000
vn 0.9708 0.2400 -0.0000
vn -0.7184 -0.6957 0.0000
vn 0.6633 0.7484 0.0000
vn -0.1860 0.0423 0.9816
usemtl 20200201_173111
s off
f 2/1/1 5/2/1 8/3/1 4/4/1
f 8/3/2 12/5/2 11/6/2 7/7/2
f 1/8/3 6/9/3 5/2/3 2/1/3
f 4/4/4 8/3/4 7/7/4 3/10/4
f 3/10/5 7/7/5 6/9/5 1/8/5
f 9/11/6 13/12/6 16/13/6 12/5/6
f 7/7/7 11/6/7 10/14/7 6/9/7
f 5/2/8 9/11/8 12/5/8 8/3/8
f 6/9/9 10/14/9 9/11/9 5/2/9
f 14/15/10 15/16/10 16/13/10 13/12/10
f 10/14/11 14/15/11 13/12/11 9/11/11
f 12/5/12 16/13/12 15/16/12 11/6/12
f 11/6/13 15/16/13 14/15/13 10/14/13
f 18/17/1 20/18/1 24/19/1 21/20/1
f 24/19/14 23/21/14 27/22/14 28/23/14
f 17/24/15 18/17/15 21/20/15 22/25/15
f 20/18/16 19/26/16 23/21/16 24/19/16
f 19/26/5 17/24/5 22/25/5 23/21/5
f 25/27/17 28/23/17 32/28/17 29/29/17
f 23/21/18 22/25/18 26/30/18 27/22/18
f 21/20/19 24/19/19 28/23/19 25/27/19
f 22/25/20 21/20/20 25/27/20 26/30/20
f 30/31/21 29/29/21 32/28/21 31/32/21
f 26/30/22 25/27/22 29/29/22 30/31/22
f 28/23/23 27/22/23 31/32/23 32/28/23
f 27/22/24 26/30/24 30/31/24 31/32/24
o GrabberArmsOpen
v 0.035573 0.285337 0.015296
v 0.035573 0.285337 -0.015296
v 0.030212 0.258088 0.015296
v 0.030212 0.258088 -0.015296
v 0.146671 0.245108 -0.015296
v 0.146671 0.245108 0.015296
v 0.129054 0.223641 0.015296
v 0.129054 0.223641 -0.015296
v 0.195669 0.053980 -0.013322
v 0.195669 0.053980 0.013322
v 0.171961 0.049189 0.013322
v 0.171961 0.049189 -0.013322
v 0.156355 -0.048919 -0.026976
v 0.156355 -0.048919 0.026976
v 0.148454 -0.000583 0.026976
v 0.148454 -0.000583 -0.026976
v -0.035573 0.285337 0.015296
v -0.035573 0.285337 -0.015296
v -0.030212 0.258088 0.015296
v -0.030212 0.258088 -0.015296
v -0.146671 0.245108 -0.015296
v -0.146671 0.245108 0.015296
v -0.129054 0.223641 0.015296
v -0.129054 0.223641 -0.015296
v -0.195669 0.053980 -0.013322
v -0.195669 0.053980 0.013322
v -0.171961 0.049189 0.013322
v -0.171961 0.049189 -0.013322
v -0.156355 -0.048919 -0.026976
v -0.156355 -0.048919 0.026976
v -0.148454 -0.000583 0.026976
v -0.148454 -0.000583 -0.026976
vt 0.501696 0.242010
vt 0.565235 0.219002
vt 0.555159 0.206724
vt 0.498630 0.226426
vt 0.579698 0.106952
vt 0.579698 0.106952
vt 0.555159 0.206724
vt 0.501696 0.242010
vt 0.565235 0.219002
vt 0.498630 0.226426
vt 0.593258 0.109693
vt 0.570773 0.050843
vt 0.566255 0.078487
vt 0.593258 0.109693
vt 0.570773 0.050843
vt 0.566255 0.078487
vt 0.461006 0.242010
vt 0.464072 0.226426
vt 0.407543 0.206724
vt 0.397467 0.219002
vt 0.407543 0.206724
vt 0.383003 0.106952
vt 0.383003 0.106952
vt 0.461006 0.242010
vt 0.397467 0.219002
vt 0.464072 0.226426
vt 0.369444 0.109693
vt 0.396447 0.078487
vt 0.391929 0.050843
vt 0.369444 0.109693
vt 0.391929 0.050843
vt 0.396447 0.078487
vn 0.0000 -0.0000 -1.0000
vn -0.9711 -0.2388 0.0000
vn 0.3405 0.9403 0.0000
vn -0.3291 -0.9443 0.0000
vn -0.0000 0.0000 1.0000
vn 0.1544 0.1121 -0.9816
vn 0.0059 -0.0093 0.9999
vn 0.0059 -0.0093 -0.9999
vn 0.9687 0.2483 -0.0000
vn -0.9869 -0.1613 -0.0000
vn 0.9341 -0.3569 0.0000
vn -0.9042 0.4270 0.0000
vn 0.1544 0.1121 0.9816
vn 0.9711 -0.2388 0.0000
vn -0.3405 0.9403 -0.0000
vn 0.3291 -0.9443 0.0000
vn -0.1544 0.1121 -0.9816
vn -0.0059 -0.0093 0.9999
vn -0.0059 -0.0093 -0.9999
vn -0.9687 0.2483 -0.0000
vn 0.9869 -0.1613 -0.0000
vn -0.9341 -0.3569 0.0000
vn 0.9042 0.4270 0.0000
vn -0.1544 0.1121 0.9816
usemtl 20200201_173111
s off
f 34/33/25 37/34/25 40/35/25 36/36/25
f 40/35/26 44/37/26 43/38/26 39/39/26
f 33/40/27 38/41/27 37/34/27 34/33/27
f 36/36/28 40/35/28 39/39/28 35/42/28
f 35/42/29 39/39/29 38/41/29 33/40/29
f 41/43/30 45/44/30 48/45/30 44/37/30
f 39/39/31 43/38/31 42/46/31 38/41/31
f 37/34/32 41/43/32 44/37/32 40/35/32
f 38/41/33 42/46/33 41/43/33 37/34/33
f 46/47/34 47/48/34 48/45/34 45/44/34
f 42/46/35 46/47/35 45/44/35 41/43/35
f 44/37/36 48/45/36 47/48/36 43/38/36
f 43/38/37 47/48/37 46/47/37 42/46/37
f 50/49/25 52/50/25 56/51/25 53/52/25
f 56/51/38 55/53/38 59/54/38 60/55/38
f 49/56/39 50/49/39 53/52/39 54/57/39
f 52/50/40 51/58/40 55/53/40 56/51/40
f 51/58/29 49/56/29 54/57/29 55/53/29
f 57/59/41 60/55/41 64/60/41 61/61/41
f 55/53/42 54/57/42 58/62/42 59/54/42
f 53/52/43 56/51/43 60/55/43 57/59/43
f 54/57/44 53/52/44 57/59/44 58/62/44
f 62/63/45 61/61/45 64/60/45 63/64/45
f 58/62/46 57/59/46 61/61/46 62/63/46
f 60/55/47 59/54/47 63/64/47 64/60/47
f 59/54/48 58/62/48 62/63/48 63/64/48
o GrabberBody
v 0.025657 0.303841 0.015296
v 0.025657 0.303841 -0.015296
v 0.036285 0.278184 0.015296
v 0.036285 0.278184 -0.015296
v 0.025657 0.252526 0.015296
v 0.025657 0.252526 -0.015296
v 0.025657 0.408863 0.015296
v 0.025657 0.408863 -0.015296
v 0.038205 0.303055 -0.015296
v 0.038205 0.303055 0.015296
v 0.038205 0.408077 -0.015296
v 0.038205 0.408077 0.015296
v 0.000000 0.314469 0.015296
v 0.000000 0.314469 -0.015296
v -0.025657 0.303841 0.015296
v -0.025657 0.303841 -0.015296
v -0.036285 0.278184 0.015296
v -0.036285 0.278184 -0.015296
v -0.025657 0.252526 0.015296
v -0.025657 0.252526 -0.015296
v 0.000000 0.241899 0.015296
v 0.000000 0.241899 -0.015296
v 0.000000 0.278184 0.015296
v 0.000000 0.408863 0.015296
v -0.025657 0.408863 0.015296
v -0.025657 0.408863 -0.015296
v 0.000000 0.408863 -0.015296
v -0.038205 0.303055 -0.015296
v -0.038205 0.303055 0.015296
v -0.038205 0.408077 -0.015296
v -0.038205 0.408077 0.015296
v 0.038205 0.316717 -0.006913
v 0.038205 0.316717 0.006913
v 0.038205 0.337845 -0.006913
v 0.038205 0.337845 0.006913
v 0.057427 0.316717 -0.006913
v 0.057427 0.316717 0.006913
v 0.057427 0.337845 -0.006913
v 0.057427 0.337845 0.006913
v 0.093214 0.350154 -0.006913
v 0.093214 0.350154 0.006913
v 0.075070 0.360980 -0.006913
v 0.075070 0.360980 0.006913
v 0.103452 0.372652 -0.006913
v 0.103452 0.372652 0.006913
v 0.082724 0.368559 -0.006913
v 0.082724 0.368559 0.006913
v 0.087036 0.416625 -0.004500
v 0.087036 0.416625 0.004500
v 0.075555 0.409053 -0.004500
v 0.075555 0.409053 0.004500
v 0.059788 0.442100 -0.004500
v 0.059788 0.442100 0.004500
v 0.048307 0.434529 -0.004500
v 0.048307 0.434529 0.004500
v 0.013241 0.460913 -0.004500
v 0.013241 0.460913 0.004500
v 0.009923 0.447565 -0.004500
v 0.009923 0.447565 0.004500
v 0.005289 0.462889 -0.004500
v 0.005289 0.462889 0.004500
v 0.001971 0.449542 -0.004500
v 0.001971 0.449542 0.004500
v 0.000000 0.429895 0.005936
v 0.009957 0.429895 0.005936
v 0.009957 0.429895 -0.005936
v 0.000000 0.429895 -0.005936
v -0.009957 0.429895 0.005936
v -0.009957 0.429895 -0.005936
v 0.000000 1.037508 0.005936
v 0.009957 1.037508 0.005936
v 0.009957 1.037508 -0.005936
v 0.000000 1.037508 -0.005936
v -0.009957 1.037508 0.005936
v -0.009957 1.037508 -0.005936
v 0.000000 1.576254 0.005936
v 0.009957 1.576254 0.005936
v 0.009957 1.576254 -0.005936
v 0.000000 1.576254 -0.005936
v -0.009957 1.576254 0.005936
v -0.009957 1.576254 -0.005936
vt 0.466338 0.312520
vt 0.459085 0.312066
vt 0.459085 0.312066
vt 0.466338 0.312520
vt 0.466338 0.251816
vt 0.460195 0.236986
vt 0.460195 0.236986
vt 0.466338 0.251816
vt 0.466338 0.222155
vt 0.481168 0.216012
vt 0.481168 0.216012
vt 0.466338 0.222155
vt 0.481168 0.236986
vt 0.481168 0.257959
vt 0.481168 0.312520
vt 0.481168 0.324677
vt 0.475413 0.324677
vt 0.481168 0.257959
vt 0.481168 0.312520
vt 0.459085 0.251362
vt 0.459085 0.259258
vt 0.459085 0.271471
vt 0.459085 0.251362
vt 0.495998 0.312520
vt 0.495998 0.312520
vt 0.503251 0.312066
vt 0.503251 0.312066
vt 0.495998 0.251816
vt 0.495998 0.251816
vt 0.502141 0.236986
vt 0.502141 0.236986
vt 0.495998 0.222155
vt 0.495998 0.222155
vt 0.475413 0.324677
vt 0.503251 0.251362
vt 0.503251 0.251362
vt 0.459085 0.271471
vt 0.447974 0.271471
vt 0.447974 0.259258
vt 0.459085 0.259258
vt 0.447974 0.271471
vt 0.437777 0.284843
vt 0.437777 0.284843
vt 0.447974 0.259258
vt 0.427289 0.278586
vt 0.421371 0.291590
vt 0.433353 0.289224
vt 0.427289 0.278586
vt 0.433353 0.289224
vt 0.437496 0.312630
vt 0.430860 0.317007
vt 0.421371 0.291590
vt 0.430860 0.317007
vt 0.446609 0.331732
vt 0.453246 0.327356
vt 0.437496 0.312630
vt 0.473515 0.342606
vt 0.475432 0.334891
vt 0.446609 0.331732
vt 0.453246 0.327356
vt 0.475432 0.334891
vt 0.480029 0.336033
vt 0.478111 0.343748
vt 0.473515 0.342606
vt 0.480029 0.336033
vt 0.478111 0.343748
vt 0.475413 0.675887
vt 0.475413 0.675887
vt 0.486923 0.324677
vt 0.486923 0.675887
vt 0.481168 0.675887
vt 0.481168 0.324677
vt 0.486923 0.324677
vt 0.475413 0.987290
vt 0.475413 0.987290
vt 0.486923 0.987290
vt 0.481168 0.987290
vt 0.486923 0.675887
vt 0.481168 0.675887
vt 0.481168 0.987290
vt 0.486923 0.987290
vn 0.0625 0.9980 0.0000
vn 0.9239 0.3827 0.0000
vn 0.3827 -0.9239 0.0000
vn 0.0000 -0.0000 1.0000
vn 0.0000 0.4066 -0.9136
vn -0.0000 0.0000 -1.0000
vn 1.0000 0.0000 0.0000
vn -0.0625 -0.9980 0.0000
vn -0.0625 0.9980 0.0000
vn -0.9239 0.3827 0.0000
vn -0.3827 -0.9239 0.0000
vn 0.8013 0.5982 0.0000
vn -1.0000 0.0000 0.0000
vn 0.0625 -0.9980 0.0000
vn -0.7952 0.6064 0.0000
vn 0.0000 1.0000 0.0000
vn 0.0000 -1.0000 0.0000
vn 0.6827 -0.7307 0.0000
vn -0.0188 0.0518 -0.9985
vn 0.9102 -0.4142 -0.0000
vn -0.7036 0.7106 0.0000
vn -0.9847 -0.1743 0.0000
vn -0.0188 0.0518 0.9985
vn 0.9368 0.3497 -0.0000
vn 0.6830 0.7305 -0.0000
vn -0.6830 -0.7305 0.0000
vn 0.3747 0.9271 0.0000
vn -0.3216 -0.9469 0.0000
vn -0.9705 0.2412 0.0000
vn -0.2412 -0.9705 0.0000
vn 0.2412 0.9705 0.0000
vn 0.0000 0.4066 0.9136
vn -0.8013 0.5982 0.0000
usemtl 20200201_173111
s off
f 71/65/49 76/66/49 75/67/49 72/68/49
f 65/69/50 67/70/50 68/71/50 66/72/50
f 69/73/51 85/74/51 86/75/51 70/76/51
f 69/73/52 67/70/52 87/77/52 85/74/52
f 77/78/52 87/77/52 67/70/52 65/69/52
f 91/79/53 131/80/53 130/81/53 72/68/53
f 78/82/54 91/79/54 72/68/54 66/72/54
f 65/69/52 71/65/52 88/83/52 77/78/52
f 74/84/55 97/85/55 99/86/55 76/66/55
f 66/72/56 73/87/56 74/84/56 65/69/56
f 65/69/52 74/84/52 76/66/52 71/65/52
f 72/68/54 75/67/54 73/87/54 66/72/54
f 89/88/57 90/89/57 94/90/57 95/91/57
f 79/92/58 80/93/58 82/94/58 81/95/58
f 83/96/59 84/97/59 86/75/59 85/74/59
f 83/96/52 85/74/52 87/77/52 81/95/52
f 77/78/52 79/92/52 81/95/52 87/77/52
f 72/68/60 130/81/60 129/98/60 71/65/60
f 78/82/54 80/93/54 90/89/54 91/79/54
f 79/92/52 77/78/52 88/83/52 89/88/52
f 92/99/61 93/100/61 95/91/61 94/90/61
f 80/93/62 79/92/62 93/100/62 92/99/62
f 79/92/52 89/88/52 95/91/52 93/100/52
f 90/89/54 80/93/54 92/99/54 94/90/54
f 98/101/54 102/102/54 100/103/54 96/104/54
f 73/87/55 96/104/55 97/85/55 74/84/55
f 75/67/55 98/101/55 96/104/55 73/87/55
f 76/66/55 99/86/55 98/101/55 75/67/55
f 103/105/63 107/106/63 106/107/63 102/102/63
f 99/86/64 103/105/64 102/102/64 98/101/64
f 97/85/52 101/108/52 103/105/52 99/86/52
f 96/104/65 100/103/65 101/108/65 97/85/65
f 105/109/52 109/110/52 111/111/52 107/106/52
f 101/108/52 105/109/52 107/106/52 103/105/52
f 100/103/66 104/112/66 105/109/66 101/108/66
f 102/102/54 106/107/54 104/112/54 100/103/54
f 110/113/67 114/114/67 112/115/67 108/116/67
f 104/112/68 108/116/68 109/110/68 105/109/68
f 106/107/54 110/113/54 108/116/54 104/112/54
f 107/106/69 111/111/69 110/113/69 106/107/69
f 113/117/52 117/118/52 119/119/52 115/120/52
f 111/111/70 115/120/70 114/114/70 110/113/70
f 109/110/71 113/117/71 115/120/71 111/111/71
f 108/116/72 112/115/72 113/117/72 109/110/72
f 117/118/52 121/121/52 123/122/52 119/119/52
f 112/115/73 116/123/73 117/118/73 113/117/73
f 114/114/54 118/124/54 116/123/54 112/115/54
f 115/120/74 119/119/74 118/124/74 114/114/74
f 122/125/54 126/126/54 124/127/54 120/128/54
f 116/123/75 120/128/75 121/121/75 117/118/75
f 118/124/54 122/125/54 120/128/54 116/123/54
f 119/119/76 123/122/76 122/125/76 118/124/76
f 124/127/77 126/126/77 127/129/77 125/130/77
f 123/122/78 127/129/78 126/126/78 122/125/78
f 121/121/52 125/130/52 127/129/52 123/122/52
f 120/128/79 124/127/79 125/130/79 121/121/79
f 130/81/55 136/131/55 135/132/55 129/98/55
f 133/133/54 139/134/54 137/135/54 131/80/54
f 90/89/53 133/133/53 131/80/53 91/79/53
f 71/65/80 129/98/80 128/136/80 88/83/80
f 89/88/81 132/137/81 133/133/81 90/89/81
f 88/83/80 128/136/80 132/137/80 89/88/80
f 136/131/55 142/138/55 141/139/55 135/132/55
f 139/134/54 145/140/54 143/141/54 137/135/54
f 131/80/54 137/135/54 136/131/54 130/81/54
f 132/137/61 138/142/61 139/134/61 133/133/61
f 128/136/52 134/143/52 138/142/52 132/137/52
f 129/98/52 135/132/52 134/143/52 128/136/52
f 140/144/64 141/139/64 142/138/64 143/141/64
f 140/144/64 143/141/64 145/140/64 144/145/64
f 137/135/54 143/141/54 142/138/54 136/131/54
f 138/142/61 144/145/61 145/140/61 139/134/61
f 134/143/52 140/144/52 144/145/52 138/142/52
f 135/132/52 141/139/52 140/144/52 134/143/52
