# Blender v2.81 (sub 16) OBJ File: 'torso.blend'
# www.blender.org
mtllib torso1.mtl
o Torso
v -0.057787 0.543744 0.043457
v -0.014894 0.507801 0.057420
v -0.100745 0.584464 0.036674
v -0.022010 0.586072 0.042910
v -0.188032 0.689553 0.033295
v -0.109347 0.690556 0.042580
v 0.055056 0.686388 0.043570
v -0.032348 0.754327 0.045439
v 0.006561 0.525495 0.049359
v 0.021662 0.575727 0.041207
v 0.109902 0.679860 0.038577
v 0.138531 0.749230 0.039095
v 0.228507 0.686890 0.023143
v -0.168848 0.777207 0.038203
v -0.304377 0.708683 -0.002317
v -0.300991 0.724261 -0.002317
v -0.278893 0.833162 0.016446
v -0.183898 0.803125 0.035677
v -0.019497 0.913919 0.044739
v -0.034513 0.926078 0.044390
v -0.041753 0.953631 0.038176
v -0.222736 0.887523 0.030647
v -0.304168 0.958579 -0.016894
v -0.149550 1.000840 0.023983
v -0.281134 0.999089 -0.018545
v -0.311317 0.845789 -0.002317
v -0.286903 0.627664 -0.002317
v 0.145706 0.776556 0.037480
v 0.092618 0.902517 0.065518
v 0.251592 0.770909 0.020027
v 0.214201 0.816916 0.026211
v 0.168015 0.879851 0.045782
v 0.254801 0.838655 0.020721
v 0.225393 0.895616 0.021878
v 0.180146 0.952038 0.029639
v 0.056900 0.998440 0.028079
v 0.099799 0.981851 0.027620
v -0.004363 0.980542 0.034225
v 0.048168 1.009628 0.027738
v -0.072046 1.003512 0.029401
v -0.036003 1.087291 0.012391
v 0.026625 1.068388 0.019029
v -0.080582 1.128433 -0.002317
v -0.006761 1.076736 0.015746
v -0.109150 1.102462 -0.002317
v -0.198516 1.056976 -0.019856
v -0.028965 1.115123 -0.002317
v 0.002784 1.116673 -0.002317
v 0.051482 1.127155 -0.002317
v 0.112079 1.078110 -0.019857
v 0.159767 1.057935 -0.023490
v 0.198968 1.010264 0.019985
v 0.263455 0.919234 0.002257
v 0.239857 1.046930 -0.019752
v 0.278374 0.996186 -0.020709
v 0.280208 0.919152 -0.002317
v 0.288518 0.813554 -0.002317
v -0.011816 0.481105 0.071526
v -0.167443 0.506831 0.026200
v -0.150992 0.534893 0.029593
v -0.249676 0.571952 -0.002317
v -0.242340 0.530990 -0.002317
v -0.062799 0.404800 0.058762
v -0.115228 0.407137 0.039628
v -0.241658 0.445790 -0.002317
v -0.151376 0.283483 0.054272
v -0.262106 0.383083 -0.002317
v -0.012722 0.317855 0.030366
v 0.000154 0.338975 0.030127
v -0.214592 0.157952 -0.002317
v -0.232492 0.171428 -0.002317
v -0.100528 0.224887 0.051937
v -0.175562 0.143270 -0.002317
v -0.004095 0.296543 0.030185
v -0.000117 0.087307 0.030377
v 0.047204 0.069553 0.023345
v -0.154938 0.121124 -0.002317
v -0.024083 0.000728 0.003551
v 0.080245 0.029834 -0.000688
v 0.029364 -0.001649 -0.002422
v 0.242936 0.149069 0.004729
v 0.224776 0.147024 0.019104
v 0.018299 0.317251 0.030113
v 0.134602 0.312669 0.056826
v 0.097130 0.430698 0.057072
v 0.130181 0.448120 0.044479
v -0.028095 0.318230 0.034222
v -0.000144 0.363964 0.037318
v -0.009356 0.272008 0.035672
v 0.039267 0.316873 0.035215
v 0.205622 0.215455 0.031253
v 0.253842 0.286751 0.004729
v 0.228623 0.403985 0.004729
v 0.215117 0.546432 0.001822
v 0.072107 0.508124 0.038350
v 0.161633 0.563460 0.023141
v 0.218982 0.631290 0.007275
v 0.253901 0.644097 -0.002317
v 0.123277 0.613007 0.034515
v -0.124422 0.880728 0.054002
v -0.075349 0.873292 0.065575
vt 0.463444 0.509035
vt 0.506828 0.481901
vt 0.499630 0.540990
vt 0.419994 0.539776
vt 0.411293 0.619868
vt 0.331708 0.619111
vt 0.577580 0.616722
vt 0.489175 0.668011
vt 0.528529 0.495258
vt 0.543803 0.533180
vt 0.633054 0.611793
vt 0.753017 0.617101
vt 0.662011 0.664163
vt 0.351111 0.685284
vt 0.217454 0.645314
vt 0.214029 0.633553
vt 0.335889 0.704851
vt 0.239805 0.727526
vt 0.502173 0.788493
vt 0.445681 0.757822
vt 0.396046 0.763435
vt 0.214241 0.822208
vt 0.296606 0.768566
vt 0.486985 0.797672
vt 0.479662 0.818473
vt 0.370630 0.854112
vt 0.237539 0.852790
vt 0.207010 0.737059
vt 0.231704 0.572389
vt 0.669268 0.684793
vt 0.615572 0.779885
vt 0.776367 0.680529
vt 0.738548 0.715261
vt 0.691833 0.762773
vt 0.779612 0.731673
vt 0.749868 0.774675
vt 0.704102 0.817269
vt 0.622835 0.839776
vt 0.579444 0.852300
vt 0.570613 0.860746
vt 0.517480 0.838788
vt 0.449022 0.856129
vt 0.515055 0.911408
vt 0.485477 0.919377
vt 0.411493 0.930830
vt 0.321103 0.896491
vt 0.548823 0.905106
vt 0.492597 0.940388
vt 0.440388 0.950436
vt 0.524709 0.941558
vt 0.573965 0.949472
vt 0.635256 0.912446
vt 0.683490 0.897215
vt 0.723140 0.861226
vt 0.788365 0.792505
vt 0.803455 0.850598
vt 0.764497 0.888907
vt 0.805311 0.792443
vt 0.813716 0.712723
vt 0.509942 0.461747
vt 0.369172 0.502353
vt 0.352532 0.481168
vt 0.269357 0.530330
vt 0.276777 0.499406
vt 0.405345 0.405906
vt 0.458375 0.404141
vt 0.277467 0.435086
vt 0.256785 0.387747
vt 0.368783 0.312556
vt 0.493476 0.338787
vt 0.521748 0.373313
vt 0.286738 0.227961
vt 0.304843 0.217788
vt 0.344320 0.206704
vt 0.420214 0.268319
vt 0.512430 0.303893
vt 0.521775 0.164455
vt 0.569638 0.151053
vt 0.365180 0.189985
vt 0.497534 0.099094
vt 0.551593 0.097300
vt 0.603057 0.121067
vt 0.749243 0.209538
vt 0.767612 0.211082
vt 0.658037 0.334589
vt 0.561610 0.337762
vt 0.653565 0.436845
vt 0.620135 0.423693
vt 0.522049 0.354448
vt 0.509025 0.338504
vt 0.517751 0.322415
vt 0.540401 0.338048
vt 0.729870 0.261199
vt 0.778642 0.315022
vt 0.753135 0.403526
vt 0.739474 0.511064
vt 0.594826 0.482144
vt 0.685378 0.523919
vt 0.778702 0.584795
vt 0.743383 0.575127
vt 0.646582 0.561324
vn -0.1290 0.1218 0.9841
vn -0.0969 -0.0631 0.9933
vn -0.0064 -0.0154 0.9999
vn 0.1281 0.1645 0.9780
vn 0.0610 -0.0397 0.9973
vn 0.1169 -0.0557 0.9916
vn -0.0768 -0.0024 0.9970
vn -0.2953 0.0191 0.9552
vn -0.2433 -0.1034 0.9644
vn 0.0825 -0.1373 0.9871
vn -0.2374 -0.0462 0.9703
vn -0.3140 0.0771 0.9463
vn -0.0203 0.2341 0.9720
vn -0.3095 0.2433 0.9192
vn -0.4863 0.0477 0.8725
vn -0.2627 -0.1305 0.9560
vn 0.0380 0.0293 0.9988
vn -0.0402 -0.1008 0.9941
vn 0.1670 -0.0035 0.9860
vn 0.2237 -0.1260 0.9665
vn 0.1554 -0.0065 0.9878
vn 0.2829 0.0126 0.9591
vn 0.3157 0.1562 0.9359
vn -0.0609 0.3432 0.9373
vn 0.0604 0.1330 0.9893
vn 0.0189 0.1733 0.9847
vn -0.0496 0.1437 0.9884
vn -0.0149 0.1961 0.9805
vn -0.1058 0.2673 0.9578
vn -0.3187 0.3949 0.8617
vn -0.0048 0.1721 0.9851
vn -0.0460 0.2916 0.9554
vn 0.0143 0.4325 0.9015
vn -0.0469 0.3844 0.9220
vn 0.3834 0.2187 0.8973
vn 0.2542 0.3632 0.8963
vn 0.0009 0.5571 0.8304
vn 0.0912 0.3099 0.9464
vn 0.3443 0.0948 0.9341
vn 0.2696 0.5534 0.7881
vn 0.4404 0.1773 0.8801
vn 0.3331 0.1765 0.9262
vn 0.5709 0.0135 0.8209
vn -0.1964 0.2342 0.9521
vn -0.1551 0.0925 0.9836
vn -0.2504 -0.0341 0.9675
vn -0.3297 -0.0029 0.9441
vn -0.2958 0.0015 0.9553
vn -0.3381 -0.0284 0.9407
vn -0.2956 0.1637 0.9412
vn 0.0139 -0.0471 0.9988
vn 0.1732 -0.2363 0.9561
vn -0.4729 -0.0998 0.8755
vn -0.2427 -0.3268 0.9134
vn 0.1359 0.0819 0.9873
vn 0.1699 -0.0197 0.9853
vn -0.2734 -0.3292 0.9038
vn -0.1832 -0.2443 0.9522
vn 0.1400 -0.3678 0.9193
vn 0.2737 -0.4785 0.8343
vn -0.1309 -0.0517 0.9900
vn -0.0676 -0.0236 0.9974
vn -0.0412 -0.2279 0.9728
vn 0.0082 0.0006 1.0000
vn 0.2970 -0.2211 0.9289
vn 0.2781 0.1305 0.9517
vn -0.2286 0.2552 0.9395
vn -0.2610 -0.2470 0.9332
vn 0.1044 -0.1665 0.9805
vn 0.5462 -0.0275 0.8372
vn 0.4132 0.0772 0.9073
vn 0.4025 0.0760 0.9123
vn 0.1975 0.3713 0.9073
vn 0.2456 0.3021 0.9211
vn 0.2152 0.1206 0.9691
vn 0.1496 0.0700 0.9863
vn 0.3259 -0.0754 0.9424
vn 0.0976 -0.0881 0.9913
vn 0.2747 -0.0054 0.9615
vn 0.1911 -0.2995 0.9348
vn 0.6034 -0.1277 0.7871
vn -0.2237 0.0962 0.9699
vn -0.0468 0.4030 0.9140
usemtl Material.001
s off
f 1/1/1 2/2/1 4/3/1 3/4/1
f 3/4/2 4/3/2 6/5/2 5/6/2
f 6/5/3 4/3/3 7/7/3 8/8/3
f 4/3/4 2/2/4 9/9/4 10/10/4
f 7/7/5 4/3/5 10/10/5 11/11/5
f 11/11/6 13/12/6 12/13/6 7/7/6
f 5/6/7 6/5/7 8/8/7 14/14/7
f 5/6/8 14/14/8 16/15/8 15/16/8
f 18/17/9 17/18/9 16/15/9 14/14/9
f 14/14/10 8/8/10 19/19/10 101/20/10
f 18/17/11 14/14/11 101/20/11 100/21/11
f 23/22/12 17/18/12 18/17/12 22/23/12
f 20/24/13 21/25/13 24/26/13 100/21/13
f 23/22/14 22/23/14 24/26/14 25/27/14
f 26/28/15 16/15/15 17/18/15 23/22/15
f 3/4/16 5/6/16 15/16/16 27/29/16
f 8/8/17 7/7/17 12/13/17 28/30/17
f 19/19/18 8/8/18 28/30/18 29/31/18
f 13/12/19 30/32/19 28/30/19 12/13/19
f 29/31/20 28/30/20 31/33/20 32/34/20
f 30/32/21 33/35/21 31/33/21 28/30/21
f 32/34/22 31/33/22 33/35/22 34/36/22
f 35/37/23 29/31/23 32/34/23 34/36/23
f 29/31/24 37/38/24 36/39/24 19/19/24
f 36/39/25 39/40/25 38/41/25 19/19/25
f 19/19/26 38/41/26 21/25/26 20/24/26
f 24/26/27 21/25/27 38/41/27 40/42/27
f 40/42/28 38/41/28 44/43/28 41/44/28
f 24/26/29 40/42/29 41/44/29 45/45/29
f 25/27/30 24/26/30 45/45/30 46/46/30
f 39/40/31 42/47/31 44/43/31 38/41/31
f 47/48/32 43/49/32 45/45/32 41/44/32
f 48/50/33 47/48/33 41/44/33 44/43/33
f 42/47/34 49/51/34 48/50/34 44/43/34
f 50/52/35 49/51/35 42/47/35 39/40/35
f 51/53/36 50/52/36 39/40/36 36/39/36
f 37/38/37 52/54/37 51/53/37 36/39/37
f 35/37/38 52/54/38 37/38/38 29/31/38
f 53/55/39 52/54/39 35/37/39 34/36/39
f 52/54/40 55/56/40 54/57/40 51/53/40
f 53/55/41 56/58/41 55/56/41 52/54/41
f 33/35/42 56/58/42 53/55/42 34/36/42
f 57/59/43 56/58/43 33/35/43 30/32/43
f 58/60/44 2/2/44 60/61/44 59/62/44
f 1/1/45 3/4/45 60/61/45 2/2/45
f 27/29/46 61/63/46 60/61/46 3/4/46
f 62/64/47 59/62/47 60/61/47 61/63/47
f 58/60/48 59/62/48 64/65/48 63/66/48
f 62/64/49 65/67/49 64/65/49 59/62/49
f 64/65/50 65/67/50 67/68/50 66/69/50
f 87/70/51 63/66/51 64/65/51 66/69/51
f 58/60/52 63/66/52 87/70/52 88/71/52
f 66/69/53 67/68/53 71/72/53 70/73/53
f 66/69/54 70/73/54 73/74/54 72/75/54
f 87/70/55 66/69/55 72/75/55 89/76/55
f 89/76/56 72/75/56 75/77/56 76/78/56
f 77/79/57 75/77/57 72/75/57 73/74/57
f 76/78/58 75/77/58 77/79/58 78/80/58
f 78/80/59 80/81/59 79/82/59 76/78/59
f 82/83/60 76/78/60 79/82/60 81/84/60
f 84/85/61 90/86/61 89/76/61 76/78/61
f 90/86/62 84/85/62 86/87/62 85/88/62
f 88/71/63 90/86/63 85/88/63 58/60/63
f 69/89/64 68/90/64 74/91/64 83/92/64
f 68/90/65 69/89/65 88/71/65 87/70/65
f 74/91/66 68/90/66 87/70/66 89/76/66
f 83/92/67 74/91/67 89/76/67 90/86/67
f 69/89/68 83/92/68 90/86/68 88/71/68
f 82/83/69 91/93/69 84/85/69 76/78/69
f 92/94/70 91/93/70 82/83/70 81/84/70
f 93/95/71 84/85/71 91/93/71 92/94/71
f 86/87/72 84/85/72 93/95/72 94/96/72
f 9/9/73 2/2/73 58/60/73 95/97/73
f 86/87/74 95/97/74 58/60/74 85/88/74
f 94/96/75 96/98/75 95/97/75 86/87/75
f 10/10/76 9/9/76 95/97/76 96/98/76
f 98/99/77 97/100/77 96/98/77 94/96/77
f 11/11/78 10/10/78 96/98/78 99/101/78
f 99/101/79 96/98/79 97/100/79 11/11/79
f 13/12/80 11/11/80 97/100/80 98/99/80
f 13/12/81 98/99/81 57/59/81 30/32/81
f 100/21/82 24/26/82 22/23/82 18/17/82
f 19/19/83 20/24/83 100/21/83 101/20/83
